<svg width="120" height="120" viewBox="0 0 120 120" fill="none" xmlns="http://www.w3.org/2000/svg">
<g clip-path="url(#clip0_25014_83927)">
<g clip-path="url(#clip1_25014_83927)">
<g clip-path="url(#clip2_25014_83927)">
<path opacity="0.8" d="M97.7872 85.393C98.4425 86.3751 98.508 87.4186 97.9838 88.5235C97.3286 89.5057 96.4113 89.9967 95.2319 89.9967H26.4346C25.1242 89.9967 24.2069 89.4443 23.6827 88.3394C23.1585 87.3572 23.224 86.3751 23.8793 85.393L37.6387 67.7144C38.2939 66.855 39.1457 66.4253 40.1941 66.4253C41.2424 66.4253 42.0942 66.855 42.7494 67.7144L49.0394 75.8171L67.5164 50.22C68.1716 49.2378 69.0234 48.7467 70.0717 48.7467C71.1201 48.7467 71.9719 49.1764 72.6271 50.0358L97.7872 85.393Z" fill="#0070F4"/>
<path opacity="0.4" d="M39.4661 33.0078C41.4713 31.1458 43.9062 30.1432 46.7708 30C49.6353 30.1432 52.0702 31.1458 54.0754 33.0078C56.0806 35.013 57.0833 37.4479 57.0833 40.3125C57.0833 43.1771 56.0806 45.612 54.0754 47.6172C52.2135 49.4792 49.7786 50.4818 46.7708 50.625C43.7629 50.4818 41.328 49.4792 39.4661 47.6172C37.6041 45.612 36.6015 43.1771 36.4583 40.3125C36.6015 37.4479 37.6041 35.013 39.4661 33.0078Z" fill="#0070F4"/>
</g>
</g>
</g>
<defs>
<clipPath id="clip0_25014_83927">
<path d="M0 8C0 3.58172 3.58172 0 8 0H112C116.418 0 120 3.58172 120 8V112C120 116.418 116.418 120 112 120H8C3.58172 120 0 116.418 0 112V8Z" fill="white"/>
</clipPath>
<clipPath id="clip1_25014_83927">
<rect width="120" height="120" fill="white"/>
</clipPath>
<clipPath id="clip2_25014_83927">
<rect width="120" height="120" fill="white"/>
</clipPath>
</defs>
</svg>
